PathFileType	4	(X/Y/Z)	s07c0301.trc
DataRate	CameraRate	NumFrames	NumMarkers	Units	OrigDataRate	OrigDataStartFrame	OrigNumFrames
200	200	4	48	mm	200	1000	2000
Frame#	Time	racr			lacr			c7			jug			rlel			rdr			llel			ldr			s2			lic			ric			lasi			rasi			rpsi			lpsi			rgt			lgt			rth1			rth2			rth3			rth4			rlfc			rmfc			rsh1			rsh2			rsh3			rsh4			rlmal			rcal			rtoe			rmt5			lth1			lth2			lth4			lth3			llfc			lmfc			lsh1			lsh2			lsh3			lsh4			llmal			lcal			ltoe			lmt5			SBIKE			LBIKE			RBIKE			
		X1	Y1	Z1	X2	Y2	Z2	X3	Y3	Z3	X4	Y4	Z4	X5	Y5	Z5	X6	Y6	Z6	X7	Y7	Z7	X8	Y8	Z8	X9	Y9	Z9	X10	Y10	Z10	X11	Y11	Z11	X12	Y12	Z12	X13	Y13	Z13	X14	Y14	Z14	X15	Y15	Z15	X16	Y16	Z16	X17	Y17	Z17	X18	Y18	Z18	X19	Y19	Z19	X20	Y20	Z20	X21	Y21	Z21	X22	Y22	Z22	X23	Y23	Z23	X24	Y24	Z24	X25	Y25	Z25	X26	Y26	Z26	X27	Y27	Z27	X28	Y28	Z28	X29	Y29	Z29	X30	Y30	Z30	X31	Y31	Z31	X32	Y32	Z32	X33	Y33	Z33	X34	Y34	Z34	X35	Y35	Z35	X36	Y36	Z36	X37	Y37	Z37	X38	Y38	Z38	X39	Y39	Z39	X40	Y40	Z40	X41	Y41	Z41	X42	Y42	Z42	X43	Y43	Z43	X44	Y44	Z44	X45	Y45	Z45	X46	Y46	Z46	X47	Y47	Z47	X48	Y48	Z48	
1000	5.0000	815.908074	1391.713381	-50.448323	844.833698	1379.141621	-381.683106	838.140324	1434.936531	-215.845812	769.799774	1295.603961	-224.405917	564.792040	1135.714392	25.227979	725.744565	919.624468	-74.129836	610.861415	1151.038600	-533.984099	725.458296	908.020285	-421.418986	238.405748	1297.706669	-284.800877	420.594650	1289.761941	-416.007441	400.541177	1318.785250	-128.074232	423.824937	1212.136825	-386.769346	406.719862	1263.031312	-142.532638	269.222109	1335.497383	-236.861896	291.287313	1329.205425	-346.046058	330.719829	1214.254526	-78.049565	309.977188	1158.223406	-432.672807	442.857451	1112.946249	-66.832702	515.804601	1062.382232	-73.266740	556.027911	989.279064	-60.606199	540.459756	1084.657535	-88.309750	628.054624	864.502494	-87.769906	618.956843	853.657715	-195.264610	521.906207	772.152207	-65.527939	461.458012	710.221229	-87.557605	380.645041	678.653357	-80.348958	471.435364	701.218569	-125.699555	258.427780	602.943058	-78.352048	178.483240	612.566023	-107.327443	396.942449	422.229158	-134.974800	318.080178	441.275958	-59.545598	304.711681	1042.647577	-437.669690	322.762916	956.524485	-434.340500	357.804748	954.532551	-425.520408	295.193449	871.661639	-427.483207	272.137684	704.058646	-398.896382	258.209125	690.297999	-307.487905	189.627640	582.540210	-419.667405	170.696648	500.790812	-401.501763	109.841278	433.898709	-404.384078	178.216965	500.870618	-359.736789	40.068142	320.100790	-397.569179	-33.849106	323.754117	-362.116172	192.680917	141.820541	-361.804499	119.863941	176.561385	-422.172910	-263.545740	973.771175	-237.221592	-83.524356	79.818322	-437.332455	-83.554008	79.685005	-39.638567	
1001	5.0050	815.906445	1387.256166	-47.674291	844.218068	1376.577830	-378.180347	838.491251	1431.420542	-212.952068	768.587177	1293.224795	-222.797213	562.352347	1133.717179	26.509106	725.120538	919.735250	-73.871599	610.728581	1151.693289	-533.817883	725.224202	907.907782	-421.363934	238.255621	1301.411551	-285.903094	419.958313	1293.056353	-416.034832	399.168306	1320.391221	-127.871497	423.537576	1215.427011	-387.056101	405.620387	1264.815488	-142.809839	269.093531	1338.687338	-237.539846	291.837540	1332.966187	-346.446519	328.217783	1216.032102	-79.132661	310.535487	1160.912306	-434.252012	439.105671	1113.762306	-67.472525	512.021066	1063.498749	-72.983598	552.301023	990.207138	-61.244269	537.006414	1085.789311	-88.378825	625.037447	864.716518	-88.351382	615.357190	853.493530	-195.742701	519.353840	771.273524	-66.096219	460.690528	707.330505	-87.404240	380.522022	674.124950	-80.439654	471.056428	698.102721	-125.542710	260.325916	595.173891	-78.660462	179.769212	602.055757	-106.743742	405.632231	420.491602	-134.890541	325.838779	435.445300	-59.715487	307.528648	1044.171853	-438.350671	327.664083	958.348870	-433.851596	362.499204	957.379664	-424.960033	301.896752	873.004143	-427.448047	281.931706	704.125911	-398.921108	267.035864	690.960722	-307.487564	196.024949	584.964618	-419.708285	173.852387	503.864403	-401.063191	110.611214	439.318928	-404.463569	180.670267	504.289547	-359.389396	36.638220	328.062028	-398.217510	-37.627074	333.311652	-363.049300	184.037987	145.631057	-360.897199	112.654106	182.088866	-421.746743	-263.557076	973.770805	-237.121401	-83.535171	79.824476	-437.330439	-83.564248	79.654009	-39.636033	
1002	5.0100	816.342388	1381.972923	-45.589984	842.538624	1373.768362	-374.508787	838.808241	1427.623761	-210.224980	767.238533	1290.598042	-221.405264	559.868214	1131.449796	27.774698	724.465239	919.777792	-73.588492	610.300561	1151.627843	-533.391739	724.947044	907.861433	-421.397770	238.161351	1304.857712	-287.035918	419.298888	1296.317577	-415.947414	397.727921	1321.797207	-127.596672	423.358155	1218.683279	-387.253059	404.434315	1266.279022	-143.221558	268.926584	1341.733949	-237.944402	291.822947	1336.699607	-346.746254	325.559231	1217.525019	-80.302953	311.397701	1163.359890	-435.905048	435.033482	1113.792719	-68.137503	507.873018	1063.599310	-72.822589	548.038052	990.042841	-61.941518	533.142442	1085.963172	-88.186664	620.997417	863.996015	-88.865410	610.880482	852.162463	-196.152894	515.660061	769.629205	-66.697063	458.744722	703.817876	-87.435144	379.517142	668.678397	-80.573875	470.174422	694.194699	-124.869763	261.363770	586.278330	-78.986761	180.339365	590.213140	-106.312433	413.709448	418.779273	-134.769745	333.153412	429.381787	-59.307200	310.816416	1045.699613	-438.987157	332.939417	960.457773	-433.384364	367.628280	960.403728	-423.926709	309.363044	874.399570	-427.185886	292.561486	704.325486	-398.978697	276.764631	691.831430	-307.231757	203.230968	587.426600	-419.663503	177.695343	507.387752	-400.782950	112.130530	445.406135	-404.650371	184.053098	507.819659	-359.500370	33.770649	336.597897	-399.021590	-40.882154	343.399674	-363.699404	175.574327	149.906123	-360.075154	105.797935	188.106399	-421.355159	-263.571039	973.771322	-237.030332	-83.545306	79.829945	-437.354953	-83.582842	79.650025	-39.636881	
1003	5.0150	817.285434	1376.031353	-44.524929	842.054998	1371.057745	-371.846445	839.029004	1423.686950	-207.927175	765.764514	1287.731263	-220.281240	557.370461	1129.118189	29.051304	723.737023	919.984117	-73.309063	609.700522	1151.421379	-533.043941	724.674304	907.866123	-421.524540	237.989649	1308.034206	-288.321215	418.828896	1299.346011	-415.935726	396.333197	1322.989456	-127.233044	423.222203	1221.762062	-387.361276	403.745691	1268.095317	-142.641772	268.859708	1344.525153	-238.528933	291.851203	1340.407050	-347.458710	322.896324	1218.635463	-81.450932	312.346109	1165.690142	-437.547723	430.774605	1113.231186	-68.767509	503.241657	1062.592540	-72.727793	542.896538	988.619041	-62.592845	529.019729	1084.920050	-87.837645	615.827742	862.332145	-89.342534	605.850370	849.836059	-196.730403	510.931730	766.939799	-67.403057	456.087088	699.255996	-87.188897	377.542104	662.375767	-80.638599	467.261725	688.608803	-125.500826	261.788532	576.187634	-79.791681	179.830887	576.598049	-106.517854	421.079141	416.792796	-134.281939	339.905370	422.657339	-58.796802	314.252612	1046.850480	-438.938042	338.813156	962.544760	-432.684940	373.297581	963.495924	-422.671581	317.855850	876.457239	-427.419545	303.743143	704.703372	-399.115306	287.969050	692.515692	-307.521349	210.874862	590.280988	-419.762352	182.032055	511.202936	-400.638436	114.169101	452.011812	-404.934020	186.465752	512.840745	-358.525501	31.441988	345.687794	-399.818072	-43.758095	354.247452	-364.237179	167.519337	155.121419	-359.857155	99.321441	194.587309	-421.003039	-263.575959	973.813770	-237.002259	-83.564317	79.924202	-437.352981	-83.578839	79.633702	-39.646794	
